<svg xmlns="http://www.w3.org/2000/svg" viewBox="0 0 500 500"><g id="freepik--background-simple--inject-1"><g style="opacity:0.8999999761581421"><path d="M406,158.23C456.8,239,356.7,310.94,291.4,313.64c-25.94,1.07-37.63-4.89-60.69,9.34-16.75,10.39-21.84,33.34-40.91,41.9C148,383.67,93.83,352.09,76.07,317c-18.43-36.41-15.61-78.34,16-99,23.14-15.13,51.32-7,64.78-16.17,27.69-18.88,22.34-39.19,35.92-64.58C242.59,44,359.77,84.86,406,158.23Z" style="fill:#0027FF"></path></g><g style="opacity:0.8999999761581421"><path d="M406,158.23C456.8,239,356.7,310.94,291.4,313.64c-25.94,1.07-37.63-4.89-60.69,9.34-16.75,10.39-21.84,33.34-40.91,41.9C148,383.67,93.83,352.09,76.07,317c-18.43-36.41-15.61-78.34,16-99,23.14-15.13,51.32-7,64.78-16.17,27.69-18.88,22.34-39.19,35.92-64.58C242.59,44,359.77,84.86,406,158.23Z" style="fill:#fff"></path></g></g><g id="freepik--Shadow--inject-1"><g id="freepik--Shadow--inject-58--inject-1"><ellipse id="freepik--path--inject-58--inject-1" cx="250" cy="449.41" rx="193.89" ry="11.32" style="fill:#f5f5f5"></ellipse></g></g><g id="freepik--Character--inject-1"><path d="M233.62,179.54c-2.67-.73-2.72-4.16-2.72-4.16l2.56.51A11.57,11.57,0,0,0,233.62,179.54Z" style="opacity:0.12"></path><path d="M374.26,86.05V230.21a8.06,8.06,0,0,1-8.06,8.06H148.35a8.05,8.05,0,0,1-8-8.06V86.05a8.05,8.05,0,0,1,8-8.06H366.2A8.06,8.06,0,0,1,374.26,86.05Z" style="fill:#0027FF"></path><path d="M374.26,86.05V230.21a8.06,8.06,0,0,1-8.06,8.06H148.35a8.05,8.05,0,0,1-8-8.06V86.05a8.05,8.05,0,0,1,8-8.06H366.2A8.06,8.06,0,0,1,374.26,86.05Z" style="fill:#fff;stroke:#fff;stroke-miterlimit:10;opacity:0.7000000000000001"></path><circle cx="360.7" cy="87.93" r="2.17" style="fill:#0027FF"></circle><path d="M350.33,87.93a2.18,2.18,0,1,1-2.18-2.17A2.19,2.19,0,0,1,350.33,87.93Z" style="fill:#0027FF"></path><path d="M337.78,87.93a2.18,2.18,0,1,1-2.18-2.17A2.19,2.19,0,0,1,337.78,87.93Z" style="fill:#0027FF"></path><path d="M357.12,115.31V259.47a8.05,8.05,0,0,1-8.05,8H131.21a8.05,8.05,0,0,1-8.05-8V115.31a8.06,8.06,0,0,1,8.05-8.06H349.07A8.06,8.06,0,0,1,357.12,115.31Z" style="fill:#0027FF"></path><path d="M357.12,115.31V259.47a8.05,8.05,0,0,1-8.05,8H131.21a8.05,8.05,0,0,1-8.05-8V115.31a8.06,8.06,0,0,1,8.05-8.06H349.07A8.06,8.06,0,0,1,357.12,115.31Z" style="fill:#fff;opacity:0.8"></path><rect x="304.94" y="124.17" width="52.19" height="131.88" style="fill:#0027FF"></rect><rect x="304.94" y="124.17" width="52.19" height="131.88" style="opacity:0.2"></rect><rect x="304.94" y="163.78" width="52.19" height="1.68" style="fill:#fafafa"></rect><rect x="304.94" y="205.17" width="52.19" height="1.68" style="fill:#fafafa"></rect><rect x="304.94" y="245.95" width="52.19" height="1.68" style="fill:#fafafa"></rect><polygon points="327.7 175.32 327.7 195.02 342.58 185.17 327.7 175.32" style="fill:#fafafa"></polygon><polygon points="327.7 216.54 327.7 236.25 342.58 226.4 327.7 216.54" style="fill:#fafafa"></polygon><polygon points="327.7 133.37 327.7 153.08 342.58 143.22 327.7 133.37" style="fill:#fafafa"></polygon><path d="M199.68,205.17s-13.34,19.89-17.5,23.84c0,0-22.36,2-31.56-4.29l-2.33,5.71s21.24,12,35.63,9.07,25-30.71,25-30.71Z" style="fill:#b55b52"></path><path d="M264.51,193.34s12.75,3.49,20.7,4.16c0,0,6-13.93,7-26.58l4.52.25s4.16,24.64-6.75,34.62c-7.54,6.91-32.7-5.89-32.7-5.89Z" style="fill:#b55b52"></path><path d="M228.63,139s-17.28-1.67-19.07,15.94a65.63,65.63,0,0,0,5.14,32s10.45,21.27,23.12,18.31,23.41-9.82,21.17-21.3-6.41-11-6.26-27S237.87,131.66,228.63,139Z" style="fill:#263238"></path><path d="M247.49,164.22c-1.81,8.83-5.84,12.35-14,11.67a11.57,11.57,0,0,0,.16,3.65,6.69,6.69,0,0,0,5.7,5.69c7,1.21,3.17,10.22,3.17,10.22l-7,3.44-9.21-5.31-7-7.47,2.45,0s4.74-7.17,0-19.24a7.42,7.42,0,0,1-3.65-5.85c-.2-4,3.93-4.24,5.49-2.74,0,0,7.11-3.1,6.05-15.08,0,0,7,5.26,16,3.73C245.64,147,249.29,155.38,247.49,164.22Z" style="fill:#b55b52"></path><path d="M241.06,156.87l.09,6.18a3.73,3.73,0,0,0,3.08-.18Z" style="fill:#a02724"></path><path d="M231.59,149.92a.41.41,0,0,1-.18,0,.34.34,0,0,1-.11-.47,3.69,3.69,0,0,1,4.44-1.41.33.33,0,0,1,.21.43.34.34,0,0,1-.43.21,3,3,0,0,0-3.64,1.12A.34.34,0,0,1,231.59,149.92Z" style="fill:#263238"></path><path d="M247.07,151.83a.36.36,0,0,1-.24-.09c-1-.91-2.74-.24-2.76-.23a.35.35,0,0,1-.44-.2.34.34,0,0,1,.2-.44c.08,0,2.19-.83,3.47.37a.34.34,0,0,1,0,.48A.36.36,0,0,1,247.07,151.83Z" style="fill:#263238"></path><path d="M238.43,166h0a6.63,6.63,0,0,1-5.88-3.08.26.26,0,0,1,.45-.24,6.14,6.14,0,0,0,5.44,2.81.25.25,0,0,1,.25.25A.26.26,0,0,1,238.43,166Z" style="fill:#263238"></path><path d="M236.64,155.81c0,.74-.37,1.34-.87,1.36s-.92-.57-.94-1.31.36-1.34.86-1.36S236.62,155.07,236.64,155.81Z" style="fill:#263238"></path><path d="M245.53,155.89c0,.73-.37,1.34-.87,1.36s-.92-.57-.95-1.31.37-1.34.87-1.36S245.51,155.15,245.53,155.89Z" style="fill:#263238"></path><path d="M235.55,154.53l2.27-.65S237.41,155.1,235.55,154.53Z" style="fill:#263238"></path><path d="M244.58,154.58l1.67-.24A1,1,0,0,1,244.58,154.58Z" style="fill:#263238"></path><path d="M268.83,192.94,261,210.18l-4.16-1.51s.42,31.3-3,47.38H213.14l-2.34-42.72-2.13,4.46-15-8.42s4.15-17,10.63-20c3.09-1.43,9.68-2.53,16.46-3.24a142.22,142.22,0,0,1,18.61-.88s.64,0,1.77,0A62.1,62.1,0,0,1,268.83,192.94Z" style="fill:#0027FF"></path><path d="M292.21,170.92a17.74,17.74,0,0,1-3-7.36,18.12,18.12,0,0,1,.77-8.49l8.08-.28,1,7.07a13.5,13.5,0,0,1-2.31,9.31Z" style="fill:#b55b52"></path><path d="M150.62,224.72l-4.21-7.51-5.12-1.78-3.64,6.8,3.25,4.46s4.29,3.64,7.39,3.74Z" style="fill:#b55b52"></path><path d="M241.09,185.25c-.07,10.78-6.81,22.59-6.81,22.59-6-5.79-12-18.21-13.57-21.73a142.22,142.22,0,0,1,18.61-.88S240,185.21,241.09,185.25Z" style="fill:#b55b52"></path><polygon points="208.66 217.79 210.76 206.22 210.8 213.34 208.66 217.79" style="opacity:0.12"></polygon><polygon points="261.02 210.18 254.3 205.17 256.86 208.67 261.02 210.18" style="opacity:0.12"></polygon><polygon points="216.75 396.34 226.37 406.75 204.05 427.98 196.09 422.32 216.75 396.34" style="fill:#b55b52"></polygon><path d="M206,427.48c.54,3.24,1.33,6.85,5.93,13.19,1,1.41-1.66,4.05-4.67,1.26s-7.33-7.17-9.51-9.18c-3.55-3.29-5-4.38-7.89-6.94a.63.63,0,0,1-.12-.11,1.51,1.51,0,0,1,.05-2.14l6.33-5.13a.75.75,0,0,1,1,.07l8.07,7.46A2.77,2.77,0,0,1,206,427.48Z" style="fill:#263238"></path><path d="M204.79,427.29a.24.24,0,0,1,0-.26A.24.24,0,0,1,205,427c.46.15,4.57,1.42,5,2.68a.73.73,0,0,1-.11.7,1.13,1.13,0,0,1-1,.49,3.88,3.88,0,0,1-2.09-1.2A17.46,17.46,0,0,1,204.79,427.29Zm.77.3c1.37,1.74,2.61,2.78,3.37,2.78a.73.73,0,0,0,.66-.33.27.27,0,0,0,0-.27,1.07,1.07,0,0,0-.27-.36A13.24,13.24,0,0,0,205.56,427.59Z" style="fill:#0027FF"></path><path d="M204.73,427.2a.21.21,0,0,1,.06-.21c.07-.07,1.88-1.73,3.42-1.6a1.76,1.76,0,0,1,1.19.6c.43.49.36.84.23,1-.57.89-3.56.78-4.75.35l-.08-.05A.33.33,0,0,1,204.73,427.2Zm3.47-1.36a4.84,4.84,0,0,0-2.8,1.24c1.32.31,3.5.22,3.84-.31,0,0,.11-.17-.17-.49l-.1-.1A1.29,1.29,0,0,0,208.2,425.84Z" style="fill:#0027FF"></path><polygon points="212.38 415.35 225.49 415.16 223.67 448.11 214.24 447.78 212.38 415.35" style="fill:#b55b52"></polygon><path d="M225.89,445.68c2.67,2.1,4,4.31,11.48,5.94,1.67.37,1.72,4.28-2.23,4.25s-8.16-.38-11-.38c-4.65,0-6.42.21-10.1.21h0a1.66,1.66,0,0,1-1.63-1.69l.64-8.34a.68.68,0,0,1,.71-.64l10.59.07A2.66,2.66,0,0,1,225.89,445.68Z" style="fill:#263238"></path><path d="M219.75,244.23c-1.14,20.45,25.74,81.58,28.74,103C239.23,368.74,215,396.16,215,396.16l11.48,12.52s40.2-35.83,42.29-60.8c1.74-21.35-13.36-101.6-13.36-101.6Z" style="fill:#0027FF"></path><path d="M219.75,244.23c-1.14,20.45,25.74,81.58,28.74,103C239.23,368.74,215,396.16,215,396.16l11.48,12.52s40.2-35.83,42.29-60.8c1.74-21.35-13.36-101.6-13.36-101.6Z" style="fill:#263238"></path><polygon points="215.3 393.24 230.32 407.5 226.27 410.04 212.53 397.68 215.3 393.24" style="fill:#0027FF"></polygon><path d="M228.4,283.05c6.3,19.46,14.38,40.65,18.16,55.12.69-15.74.16-43.78-10.85-59C230.57,272,228.54,275.57,228.4,283.05Z" style="opacity:0.30000000000000004;isolation:isolate"></path><path d="M212.9,244.47c-7.81,21.51-1.73,70.07-1.31,104.87-2.34,26.23.79,66,.79,66l14.1.58s4.25-46.94,7.15-76.23c2.46-24.66,11.24-94,11.24-94Z" style="fill:#0027FF"></path><path d="M212.46,243.72c-7.81,21.5-1.29,70.82-.87,105.62-2.34,26.23.79,66,.79,66l14.1.58s4.25-46.94,7.15-76.23c2.46-24.66,11.24-94,11.24-94Z" style="fill:#263238"></path><polygon points="210.33 411.88 228.61 412.39 227.48 417.47 211.32 417.93 210.33 411.88" style="fill:#0027FF"></polygon><path d="M229.42,446.34c-.84.81-3,.42-4.28.13a.27.27,0,0,1-.18-.19.22.22,0,0,1,.09-.22c.3-.21,3-2,4.17-1.53a.8.8,0,0,1,.48.64,1.18,1.18,0,0,1-.2,1A.29.29,0,0,1,229.42,446.34Zm-3.66-.24c1.66.34,2.89.29,3.34-.12a.79.79,0,0,0,.16-.79.31.31,0,0,0-.2-.29c-.59-.26-2.19.53-3.3,1.23Z" style="fill:#0027FF"></path><path d="M225.3,446.39a.28.28,0,0,1-.22,0,.29.29,0,0,1-.13-.19c0-.12-.16-2.83.79-3.73a1.06,1.06,0,0,1,.93-.29.85.85,0,0,1,.79.63,3.56,3.56,0,0,1-1.05,2.54A4.77,4.77,0,0,1,225.3,446.39Zm.08-.62c.86-.71,1.82-2.23,1.65-2.88a.35.35,0,0,0-.39-.27.63.63,0,0,0-.58.19l-.09.1A5.35,5.35,0,0,0,225.38,445.77Z" style="fill:#0027FF"></path><rect x="218.38" y="183.77" width="3.45" height="20.32" style="fill:#fafafa"></rect><rect x="210.3" y="183.77" width="3.45" height="20.32" style="fill:#fafafa"></rect><circle cx="215.73" cy="193.65" r="16.53" transform="matrix(0.23, -0.97, 0.97, 0.23, -22.03, 359.51)" style="fill:none;stroke:#fafafa;stroke-miterlimit:10"></circle><path d="M357.12,115.31v8.86h-234v-8.86a8.06,8.06,0,0,1,8.05-8.06H349.07A8.06,8.06,0,0,1,357.12,115.31Z" style="fill:#0027FF"></path><path d="M357.12,256.05v3.42a8.05,8.05,0,0,1-8.05,8H131.21a8.05,8.05,0,0,1-8.05-8v-3.42Z" style="fill:#0027FF"></path><path d="M169.36,120.1H135.18a3.71,3.71,0,0,1-3.71-3.7h0a3.71,3.71,0,0,1,3.71-3.71h34.18a3.71,3.71,0,0,1,3.71,3.71h0A3.71,3.71,0,0,1,169.36,120.1Z" style="fill:none;stroke:#fff;stroke-miterlimit:10;stroke-width:0.5px"></path><path d="M187.92,120.1h-5a3.7,3.7,0,0,1-3.7-3.7h0a3.71,3.71,0,0,1,3.7-3.71h5a3.71,3.71,0,0,1,3.71,3.71h0A3.71,3.71,0,0,1,187.92,120.1Z" style="fill:none;stroke:#fff;stroke-miterlimit:10;stroke-width:0.5px"></path><rect x="128.61" y="128.72" width="171.42" height="123.52" rx="15.04" style="fill:none;stroke:#fff;stroke-miterlimit:10;stroke-width:0.5px"></rect><rect x="112.61" y="139.38" width="76.91" height="38.02" rx="8.25" style="fill:#0027FF"></rect><path d="M192.46,145.87v25A6.48,6.48,0,0,1,186,177.4H162.83c-7,2.42-2.62,12.11-2.47,12.46a12.64,12.64,0,0,1-3.69-2c-5-4-4.3-10.45-4.3-10.45H122a6.49,6.49,0,0,1-6.49-6.49v-25a6.49,6.49,0,0,1,6.49-6.49H186A6.48,6.48,0,0,1,192.46,145.87Z" style="fill:#0027FF"></path><path d="M189.51,145.87v25A6.48,6.48,0,0,1,183,177.4H159.88c-5.12,1.76-4.16,7.4-3.21,10.45-5-4-4.3-10.45-4.3-10.45H119.09a6.48,6.48,0,0,1-6.48-6.49v-25a6.48,6.48,0,0,1,6.48-6.49H183A6.48,6.48,0,0,1,189.51,145.87Z" style="fill:#fff;opacity:0.2"></path><rect x="118.2" y="145.42" width="65.32" height="3.46" style="fill:#0027FF"></rect><rect x="118.2" y="151.77" width="65.32" height="3.46" style="fill:#0027FF"></rect><rect x="118.2" y="158.13" width="65.32" height="3.46" style="fill:#0027FF"></rect><rect x="118.2" y="145.42" width="65.32" height="3.46" style="opacity:0.1"></rect><rect x="118.2" y="151.77" width="65.32" height="3.46" style="opacity:0.1"></rect><rect x="118.2" y="158.13" width="65.32" height="3.46" style="opacity:0.1"></rect></g></svg>