<svg xmlns="http://www.w3.org/2000/svg" xmlns:xlink="http://www.w3.org/1999/xlink" width="400" height="110" viewBox="0 0 400 110">
  <defs>
    <clipPath id="clip-New">
      <rect width="400" height="110"/>
    </clipPath>
  </defs>
  <g id="New" clip-path="url(#clip-New)">
    <rect width="400" height="110" fill="rgba(255,255,255,0)"/>
    <g id="Path_10" data-name="Path 10" fill="#0027ff">
      <path d="M 370 109.5 L 30 109.5 C 26.01729965209961 109.5 22.15399932861328 108.720100402832 18.51740074157715 107.1819534301758 C 15.0046501159668 105.6961517333984 11.84974956512451 103.5690536499023 9.140350341796875 100.8596496582031 C 6.430950164794922 98.15025329589844 4.303850173950195 94.99535369873047 2.818049907684326 91.48259735107422 C 1.279899954795837 87.84600067138672 0.5 83.98269653320313 0.5 80 L 0.5 30 C 0.5 26.01729965209961 1.279899954795837 22.15399932861328 2.818049907684326 18.51740074157715 C 4.303850173950195 15.0046501159668 6.430950164794922 11.84974956512451 9.140350341796875 9.140350341796875 C 11.84974956512451 6.430950164794922 15.0046501159668 4.303850173950195 18.51740074157715 2.818049907684326 C 22.15399932861328 1.279899954795837 26.01729965209961 0.5 30 0.5 L 370 0.5 C 373.9826965332031 0.5 377.8460083007813 1.279899954795837 381.4826049804688 2.818049907684326 C 384.995361328125 4.303850173950195 388.1502380371094 6.430950164794922 390.8596496582031 9.140350341796875 C 393.5690612792969 11.84974956512451 395.6961364746094 15.0046501159668 397.1819458007813 18.51740074157715 C 398.7200927734375 22.15399932861328 399.5 26.01729965209961 399.5 30 L 399.5 80 C 399.5 83.98269653320313 398.7200927734375 87.84600067138672 397.1819458007813 91.48259735107422 C 395.6961364746094 94.99535369873047 393.5690612792969 98.15025329589844 390.8596496582031 100.8596496582031 C 388.1502380371094 103.5690536499023 384.995361328125 105.6961517333984 381.4826049804688 107.1819534301758 C 377.8460083007813 108.720100402832 373.9826965332031 109.5 370 109.5 Z" stroke="none"/>
      <path d="M 30 1 C 26.0845947265625 1 22.28680419921875 1.7666015625 18.71218872070313 3.278549194335938 C 15.25900268554688 4.739097595214844 12.15756225585938 6.830253601074219 9.493896484375 9.493896484375 C 6.83026123046875 12.15754699707031 4.739105224609375 15.25900268554688 3.278564453125 18.71219635009766 C 1.7666015625 22.28679656982422 1 26.08460235595703 1 30 L 1 80 C 1 83.91539764404297 1.7666015625 87.71319580078125 3.278564453125 91.28779602050781 C 4.739105224609375 94.74099731445313 6.83026123046875 97.84245300292969 9.493896484375 100.506103515625 C 12.15756225585938 103.1697540283203 15.25900268554688 105.2609024047852 18.71218872070313 106.7214508056641 C 22.28680419921875 108.2333984375 26.0845947265625 109 30 109 L 370 109 C 373.9154052734375 109 377.7131958007813 108.2333984375 381.2878112792969 106.7214508056641 C 384.7409973144531 105.2609024047852 387.8424377441406 103.1697540283203 390.506103515625 100.506103515625 C 393.1697387695313 97.84245300292969 395.2608947753906 94.74099731445313 396.721435546875 91.28779602050781 C 398.2333984375 87.71319580078125 399 83.91539764404297 399 80 L 399 30 C 399 26.08460235595703 398.2333984375 22.28679656982422 396.721435546875 18.71219635009766 C 395.2608947753906 15.25900268554688 393.1697387695313 12.15754699707031 390.506103515625 9.493896484375 C 387.8424377441406 6.830253601074219 384.7409973144531 4.739097595214844 381.2878112792969 3.278549194335938 C 377.7131958007813 1.7666015625 373.9154052734375 1 370 1 L 30 1 M 30 0 L 370 0 C 386.5685424804688 0 400 13.43144989013672 400 30 L 400 80 C 400 96.56855010986328 386.5685424804688 110 370 110 L 30 110 C 13.43145751953125 110 0 96.56855010986328 0 80 L 0 30 C 0 13.43144989013672 13.43145751953125 0 30 0 Z" stroke="none" fill="#707070"/>
    </g>
    <g id="github-logo" transform="translate(349.514 14.635)">
      <path id="Path_1" data-name="Path 1" d="M29.854,13.534a16.136,16.136,0,0,0-5.823-5.969A15.357,15.357,0,0,0,16,5.365a15.358,15.358,0,0,0-8.031,2.2,16.134,16.134,0,0,0-5.823,5.969A16.353,16.353,0,0,0,0,21.766a16.209,16.209,0,0,0,3.052,9.642,15.7,15.7,0,0,0,7.885,5.926.915.915,0,0,0,.833-.149.845.845,0,0,0,.271-.64q0-.064-.011-1.153t-.011-1.9l-.479.085a5.965,5.965,0,0,1-1.156.075,8.6,8.6,0,0,1-1.448-.15,3.2,3.2,0,0,1-1.4-.64,2.709,2.709,0,0,1-.916-1.313l-.208-.491a5.362,5.362,0,0,0-.656-1.089,2.532,2.532,0,0,0-.906-.811l-.146-.107a1.544,1.544,0,0,1-.271-.256,1.176,1.176,0,0,1-.187-.3q-.063-.15.1-.246a1.322,1.322,0,0,1,.6-.1l.417.064a3.009,3.009,0,0,1,1.031.512,3.414,3.414,0,0,1,1.01,1.11,3.735,3.735,0,0,0,1.156,1.335,2.412,2.412,0,0,0,1.364.459,5.784,5.784,0,0,0,1.187-.106,4.074,4.074,0,0,0,.937-.321,3.5,3.5,0,0,1,1.021-2.2,13.948,13.948,0,0,1-2.135-.384,8.388,8.388,0,0,1-1.958-.833,5.644,5.644,0,0,1-1.677-1.431,6.943,6.943,0,0,1-1.094-2.242,10.912,10.912,0,0,1-.427-3.2,6.317,6.317,0,0,1,1.646-4.4,5.874,5.874,0,0,1,.146-4.356,2.855,2.855,0,0,1,1.792.288,12.387,12.387,0,0,1,1.74.822q.552.341.885.577a14.691,14.691,0,0,1,8,0l.792-.512a11.1,11.1,0,0,1,1.916-.94,2.669,2.669,0,0,1,1.688-.235,5.817,5.817,0,0,1,.166,4.356,6.318,6.318,0,0,1,1.646,4.4,11.035,11.035,0,0,1-.427,3.214,6.671,6.671,0,0,1-1.1,2.242,5.858,5.858,0,0,1-1.688,1.42,8.4,8.4,0,0,1-1.958.833,13.934,13.934,0,0,1-2.135.385,3.856,3.856,0,0,1,1.083,3.032v4.506a.861.861,0,0,0,.261.64.888.888,0,0,0,.823.149,15.7,15.7,0,0,0,7.886-5.926A16.213,16.213,0,0,0,32,21.765,16.367,16.367,0,0,0,29.854,13.534Z"/>
    </g>
    <g id="share_black_24dp" transform="translate(350 60)">
      <path id="Path_2" data-name="Path 2" d="M0,0H32V32H0Z" fill="none"/>
      <path id="Path_3" data-name="Path 3" d="M24.667,21.735a4.277,4.277,0,0,0-2.831,1.079L11.537,17a4.46,4.46,0,0,0,.13-.981,4.46,4.46,0,0,0-.13-.981L21.72,9.274a4.386,4.386,0,0,0,2.947,1.135A4.265,4.265,0,0,0,29,6.2a4.335,4.335,0,0,0-8.667,0,4.46,4.46,0,0,0,.13.981L10.28,12.947a4.386,4.386,0,0,0-2.947-1.135,4.207,4.207,0,1,0,0,8.41,4.386,4.386,0,0,0,2.947-1.135l10.284,5.831a3.843,3.843,0,0,0-.116.911,4.22,4.22,0,1,0,4.218-4.093Z" transform="translate(0)"/>
    </g>
    <path id="Path_11" data-name="Path 11" d="M1.84-16.468H6.808a8.956,8.956,0,0,1,4.416,1.046,7.2,7.2,0,0,1,2.9,2.91,8.819,8.819,0,0,1,1.012,4.278,8.819,8.819,0,0,1-1.012,4.278,7.2,7.2,0,0,1-2.9,2.91A8.956,8.956,0,0,1,6.808,0H1.84ZM6.808-1.863a6.336,6.336,0,0,0,4.635-1.679,6.269,6.269,0,0,0,1.713-4.692,6.269,6.269,0,0,0-1.713-4.692,6.336,6.336,0,0,0-4.635-1.679H3.8V-1.863ZM22.954.368a5.555,5.555,0,0,1-2.967-.805,5.477,5.477,0,0,1-2.035-2.22,6.886,6.886,0,0,1-.724-3.185,7.108,7.108,0,0,1,.69-3.117,5.638,5.638,0,0,1,1.955-2.288,5.109,5.109,0,0,1,2.921-.851,5.413,5.413,0,0,1,2.933.77,5.112,5.112,0,0,1,1.9,2.128,6.95,6.95,0,0,1,.667,3.1,4.246,4.246,0,0,1-.046.6H19.182a4.72,4.72,0,0,0,.632,2.254,3.747,3.747,0,0,0,1.414,1.38,3.72,3.72,0,0,0,1.794.46,3.634,3.634,0,0,0,3.358-2.139l1.656.828a5.716,5.716,0,0,1-2,2.243A5.519,5.519,0,0,1,22.954.368ZM26.22-7.107a3.922,3.922,0,0,0-.4-1.472A3.129,3.129,0,0,0,24.7-9.821a3.371,3.371,0,0,0-1.909-.506,3.167,3.167,0,0,0-2.266.885A4.331,4.331,0,0,0,19.3-7.107Zm4.83-4.623h1.863v1.748h.046a4.266,4.266,0,0,1,1.576-1.507,4.6,4.6,0,0,1,2.358-.609,5.046,5.046,0,0,1,2.806.805,5.633,5.633,0,0,1,1.966,2.231,6.956,6.956,0,0,1,.724,3.2,6.937,6.937,0,0,1-.724,3.209A5.652,5.652,0,0,1,39.7-.437a5.046,5.046,0,0,1-2.806.805,4.6,4.6,0,0,1-2.358-.61,4.338,4.338,0,0,1-1.576-1.484h-.046l.092,1.61V4.968H31.05ZM36.685-1.4a3.392,3.392,0,0,0,1.84-.552,3.9,3.9,0,0,0,1.391-1.564,5.084,5.084,0,0,0,.518-2.346,5.084,5.084,0,0,0-.518-2.346,3.9,3.9,0,0,0-1.391-1.564,3.392,3.392,0,0,0-1.84-.552,3.373,3.373,0,0,0-1.852.552,4.015,4.015,0,0,0-1.391,1.564,4.993,4.993,0,0,0-.529,2.346,4.993,4.993,0,0,0,.529,2.346,4.015,4.015,0,0,0,1.391,1.564A3.373,3.373,0,0,0,36.685-1.4ZM50.347.368A5.555,5.555,0,0,1,47.38-.437a5.477,5.477,0,0,1-2.035-2.22,6.886,6.886,0,0,1-.725-3.185,7.107,7.107,0,0,1,.69-3.117,5.638,5.638,0,0,1,1.955-2.288,5.109,5.109,0,0,1,2.921-.851,5.413,5.413,0,0,1,2.932.77,5.112,5.112,0,0,1,1.9,2.128,6.95,6.95,0,0,1,.667,3.1,4.246,4.246,0,0,1-.046.6H46.575a4.72,4.72,0,0,0,.632,2.254,3.747,3.747,0,0,0,1.415,1.38,3.72,3.72,0,0,0,1.794.46,3.634,3.634,0,0,0,3.358-2.139l1.656.828a5.716,5.716,0,0,1-2,2.243A5.519,5.519,0,0,1,50.347.368Zm3.266-7.475a3.922,3.922,0,0,0-.4-1.472A3.129,3.129,0,0,0,52.1-9.821a3.371,3.371,0,0,0-1.909-.506,3.167,3.167,0,0,0-2.265.885A4.331,4.331,0,0,0,46.69-7.107Zm4.922-4.623H60.4v1.725h.046a3.98,3.98,0,0,1,1.518-1.483A4.28,4.28,0,0,1,64.17-12.1a4.036,4.036,0,0,1,3.186,1.231,4.86,4.86,0,0,1,1.092,3.346V0H66.493V-7.222a3.185,3.185,0,0,0-.759-2.369,2.847,2.847,0,0,0-2.07-.736,2.669,2.669,0,0,0-1.633.529A3.679,3.679,0,0,0,60.9-8.406,4.123,4.123,0,0,0,60.49-6.6V0H58.535ZM76.7.368A5.046,5.046,0,0,1,73.9-.437a5.652,5.652,0,0,1-1.966-2.22,6.937,6.937,0,0,1-.724-3.209,6.956,6.956,0,0,1,.724-3.2A5.633,5.633,0,0,1,73.9-11.293,5.046,5.046,0,0,1,76.7-12.1a4.536,4.536,0,0,1,2.346.609,4.487,4.487,0,0,1,1.587,1.507h.046l-.092-1.633v-4.853h1.955V0H80.684V-1.725h-.046A4.57,4.57,0,0,1,79.051-.242,4.536,4.536,0,0,1,76.7.368ZM76.912-1.4a3.373,3.373,0,0,0,1.852-.552,4.015,4.015,0,0,0,1.392-1.564,4.993,4.993,0,0,0,.529-2.346,4.993,4.993,0,0,0-.529-2.346,4.015,4.015,0,0,0-1.392-1.564,3.373,3.373,0,0,0-1.852-.552,3.392,3.392,0,0,0-1.84.552,3.964,3.964,0,0,0-1.4,1.575,5.011,5.011,0,0,0-.529,2.335,5.011,5.011,0,0,0,.529,2.335,3.964,3.964,0,0,0,1.4,1.576A3.392,3.392,0,0,0,76.912-1.4ZM91.011.368a5.555,5.555,0,0,1-2.967-.805,5.477,5.477,0,0,1-2.035-2.22,6.886,6.886,0,0,1-.724-3.185,7.108,7.108,0,0,1,.69-3.117,5.638,5.638,0,0,1,1.955-2.288A5.109,5.109,0,0,1,90.85-12.1a5.413,5.413,0,0,1,2.933.77A5.112,5.112,0,0,1,95.68-9.2a6.95,6.95,0,0,1,.667,3.1,4.247,4.247,0,0,1-.046.6H87.239a4.72,4.72,0,0,0,.632,2.254,3.747,3.747,0,0,0,1.415,1.38,3.72,3.72,0,0,0,1.794.46,3.634,3.634,0,0,0,3.358-2.139l1.656.828a5.716,5.716,0,0,1-2,2.243A5.519,5.519,0,0,1,91.011.368Zm3.266-7.475a3.922,3.922,0,0,0-.4-1.472,3.129,3.129,0,0,0-1.116-1.242,3.371,3.371,0,0,0-1.909-.506,3.167,3.167,0,0,0-2.265.885,4.331,4.331,0,0,0-1.23,2.335ZM99.2-11.73h1.863v1.725h.046a3.98,3.98,0,0,1,1.518-1.483,4.28,4.28,0,0,1,2.208-.609,4.036,4.036,0,0,1,3.186,1.231,4.86,4.86,0,0,1,1.092,3.346V0h-1.955V-7.222a3.185,3.185,0,0,0-.759-2.369,2.847,2.847,0,0,0-2.07-.736,2.669,2.669,0,0,0-1.633.529,3.679,3.679,0,0,0-1.127,1.392,4.123,4.123,0,0,0-.414,1.806V0H99.2ZM117.691.368a5.655,5.655,0,0,1-3.013-.817,5.585,5.585,0,0,1-2.07-2.231,6.8,6.8,0,0,1-.736-3.186,6.867,6.867,0,0,1,.736-3.2,5.488,5.488,0,0,1,2.07-2.231,5.717,5.717,0,0,1,3.013-.805,5.374,5.374,0,0,1,3.139.885,4.759,4.759,0,0,1,1.806,2.358l-1.771.736A3.514,3.514,0,0,0,119.6-9.764a3.471,3.471,0,0,0-2-.564,3.36,3.36,0,0,0-1.875.564,4.105,4.105,0,0,0-1.391,1.576,4.941,4.941,0,0,0-.529,2.323,4.941,4.941,0,0,0,.529,2.323,4.105,4.105,0,0,0,1.391,1.576A3.36,3.36,0,0,0,117.6-1.4a3.625,3.625,0,0,0,2.059-.575,3.513,3.513,0,0,0,1.3-1.633l1.748.736A5.065,5.065,0,0,1,120.83-.529,5.39,5.39,0,0,1,117.691.368Zm11.178-1.1L124.131-11.73h2.116l3.588,8.717h0l3.45-8.717H135.4l-7.061,16.7h-2.024Zm15.042-15.732H146.3l8.257,13.11h.092l-.092-3.174v-9.936h1.955V0h-2.024l-8.625-13.731h-.092l.092,3.174V0h-1.955ZM163.691.368a4.95,4.95,0,0,1-2.266-.506A3.648,3.648,0,0,1,159.9-1.53a3.848,3.848,0,0,1-.529-2.013,3.456,3.456,0,0,1,1.368-2.91A5.534,5.534,0,0,1,164.2-7.5a7.76,7.76,0,0,1,1.932.23,4.86,4.86,0,0,1,1.334.506v-.69a2.672,2.672,0,0,0-.9-2.1,3.277,3.277,0,0,0-2.254-.793,3.7,3.7,0,0,0-1.737.425,3.284,3.284,0,0,0-1.3,1.208L159.8-9.844a4.554,4.554,0,0,1,1.863-1.656,5.831,5.831,0,0,1,2.645-.6,5.119,5.119,0,0,1,3.669,1.253A4.481,4.481,0,0,1,169.3-7.429V0h-1.84V-1.679h-.069A4.045,4.045,0,0,1,165.922-.23,4.227,4.227,0,0,1,163.691.368Zm.184-1.725a3.338,3.338,0,0,0,1.771-.506,3.8,3.8,0,0,0,1.322-1.357,3.642,3.642,0,0,0,.495-1.863,4.9,4.9,0,0,0-1.323-.6,5.722,5.722,0,0,0-1.645-.23,3.588,3.588,0,0,0-2.357.667,2.149,2.149,0,0,0-.794,1.725,1.943,1.943,0,0,0,.713,1.564A2.731,2.731,0,0,0,163.875-1.357Zm8.717-10.373h1.863v1.725h.046A4.107,4.107,0,0,1,176-11.5a3.981,3.981,0,0,1,2.093-.6,3.922,3.922,0,0,1,2.208.621,3.394,3.394,0,0,1,1.334,1.61,4.588,4.588,0,0,1,1.576-1.61,4.335,4.335,0,0,1,2.334-.621,3.64,3.64,0,0,1,3,1.231,5.153,5.153,0,0,1,1,3.346V0h-1.932V-7.222a3.513,3.513,0,0,0-.656-2.369,2.408,2.408,0,0,0-1.9-.736,2.544,2.544,0,0,0-1.541.506,3.407,3.407,0,0,0-1.081,1.357,4.354,4.354,0,0,0-.391,1.84V0H180.09V-7.2a3.6,3.6,0,0,0-.644-2.392,2.372,2.372,0,0,0-1.886-.736,2.506,2.506,0,0,0-1.541.517,3.483,3.483,0,0,0-1.081,1.38,4.431,4.431,0,0,0-.391,1.852V0h-1.955ZM198.053.368a5.555,5.555,0,0,1-2.967-.805,5.477,5.477,0,0,1-2.035-2.22,6.886,6.886,0,0,1-.725-3.185,7.107,7.107,0,0,1,.69-3.117,5.638,5.638,0,0,1,1.955-2.288,5.109,5.109,0,0,1,2.921-.851,5.413,5.413,0,0,1,2.933.77,5.112,5.112,0,0,1,1.9,2.128,6.951,6.951,0,0,1,.667,3.1,4.246,4.246,0,0,1-.046.6h-9.062a4.72,4.72,0,0,0,.632,2.254,3.747,3.747,0,0,0,1.415,1.38,3.72,3.72,0,0,0,1.794.46,3.634,3.634,0,0,0,3.358-2.139l1.656.828a5.716,5.716,0,0,1-2,2.243A5.519,5.519,0,0,1,198.053.368Zm3.266-7.475a3.923,3.923,0,0,0-.4-1.472A3.129,3.129,0,0,0,199.8-9.821a3.37,3.37,0,0,0-1.909-.506,3.167,3.167,0,0,0-2.266.885,4.331,4.331,0,0,0-1.23,2.335Z" transform="translate(30 42)" fill="#fff"/>
    <path id="Path_12" data-name="Path 12" d="M1.6-14.32H5.92a7.788,7.788,0,0,1,3.84.91,6.263,6.263,0,0,1,2.52,2.53,7.669,7.669,0,0,1,.88,3.72,7.669,7.669,0,0,1-.88,3.72A6.263,6.263,0,0,1,9.76-.91,7.788,7.788,0,0,1,5.92,0H1.6ZM5.92-1.62A5.509,5.509,0,0,0,9.95-3.08a5.451,5.451,0,0,0,1.49-4.08,5.451,5.451,0,0,0-1.49-4.08A5.509,5.509,0,0,0,5.92-12.7H3.3V-1.62ZM19.96.32a4.831,4.831,0,0,1-2.58-.7,4.762,4.762,0,0,1-1.77-1.93,5.988,5.988,0,0,1-.63-2.77,6.18,6.18,0,0,1,.6-2.71,4.9,4.9,0,0,1,1.7-1.99,4.443,4.443,0,0,1,2.54-.74,4.707,4.707,0,0,1,2.55.67A4.445,4.445,0,0,1,24.02-8a6.044,6.044,0,0,1,.58,2.7,3.693,3.693,0,0,1-.04.52H16.68a4.1,4.1,0,0,0,.55,1.96,3.258,3.258,0,0,0,1.23,1.2,3.234,3.234,0,0,0,1.56.4,3.16,3.16,0,0,0,2.92-1.86l1.44.72A4.971,4.971,0,0,1,22.64-.41,4.8,4.8,0,0,1,19.96.32Zm2.84-6.5a3.411,3.411,0,0,0-.35-1.28,2.721,2.721,0,0,0-.97-1.08,2.931,2.931,0,0,0-1.66-.44,2.754,2.754,0,0,0-1.97.77,3.766,3.766,0,0,0-1.07,2.03Zm2.96-4.02h1.82L30.66-2h0l3.12-8.2h1.78L31.5,0H29.78ZM41.6.32a4.831,4.831,0,0,1-2.58-.7,4.762,4.762,0,0,1-1.77-1.93,5.988,5.988,0,0,1-.63-2.77,6.18,6.18,0,0,1,.6-2.71,4.9,4.9,0,0,1,1.7-1.99,4.443,4.443,0,0,1,2.54-.74,4.707,4.707,0,0,1,2.55.67A4.445,4.445,0,0,1,45.66-8a6.044,6.044,0,0,1,.58,2.7,3.692,3.692,0,0,1-.04.52H38.32a4.1,4.1,0,0,0,.55,1.96,3.258,3.258,0,0,0,1.23,1.2,3.234,3.234,0,0,0,1.56.4,3.16,3.16,0,0,0,2.92-1.86l1.44.72A4.971,4.971,0,0,1,44.28-.41,4.8,4.8,0,0,1,41.6.32Zm2.84-6.5a3.411,3.411,0,0,0-.35-1.28,2.721,2.721,0,0,0-.97-1.08,2.931,2.931,0,0,0-1.66-.44,2.754,2.754,0,0,0-1.97.77,3.766,3.766,0,0,0-1.07,2.03Zm4.28-8.14,1.7-.6V0h-1.7ZM57.92.32A4.953,4.953,0,0,1,55.27-.4a4.959,4.959,0,0,1-1.82-1.96A5.811,5.811,0,0,1,52.8-5.1a5.811,5.811,0,0,1,.65-2.74A4.959,4.959,0,0,1,55.27-9.8a4.953,4.953,0,0,1,2.65-.72,4.953,4.953,0,0,1,2.65.72,4.959,4.959,0,0,1,1.82,1.96,5.811,5.811,0,0,1,.65,2.74,5.811,5.811,0,0,1-.65,2.74A4.959,4.959,0,0,1,60.57-.4,4.953,4.953,0,0,1,57.92.32Zm0-1.54a3.25,3.25,0,0,0,1.69-.47,3.451,3.451,0,0,0,1.27-1.35,4.236,4.236,0,0,0,.48-2.06,4.236,4.236,0,0,0-.48-2.06,3.451,3.451,0,0,0-1.27-1.35,3.25,3.25,0,0,0-1.69-.47,3.3,3.3,0,0,0-1.7.47,3.427,3.427,0,0,0-1.28,1.35,4.236,4.236,0,0,0-.48,2.06,4.236,4.236,0,0,0,.48,2.06,3.427,3.427,0,0,0,1.28,1.35A3.3,3.3,0,0,0,57.92-1.22Zm7.42-8.98h1.62v1.52H67a3.709,3.709,0,0,1,1.37-1.31,4,4,0,0,1,2.05-.53,4.388,4.388,0,0,1,2.44.7,4.9,4.9,0,0,1,1.71,1.94A6.049,6.049,0,0,1,75.2-5.1a6.032,6.032,0,0,1-.63,2.79A4.914,4.914,0,0,1,72.86-.38a4.388,4.388,0,0,1-2.44.7,4,4,0,0,1-2.05-.53A3.772,3.772,0,0,1,67-1.5h-.04l.08,1.4V4.32h-1.7Zm4.9,8.98a2.95,2.95,0,0,0,1.6-.48,3.391,3.391,0,0,0,1.21-1.36A4.421,4.421,0,0,0,73.5-5.1a4.421,4.421,0,0,0-.45-2.04A3.391,3.391,0,0,0,71.84-8.5a2.95,2.95,0,0,0-1.6-.48,2.933,2.933,0,0,0-1.61.48,3.491,3.491,0,0,0-1.21,1.36,4.342,4.342,0,0,0-.46,2.04,4.342,4.342,0,0,0,.46,2.04A3.491,3.491,0,0,0,68.63-1.7,2.933,2.933,0,0,0,70.24-1.22ZM82.12.32a4.831,4.831,0,0,1-2.58-.7,4.762,4.762,0,0,1-1.77-1.93,5.988,5.988,0,0,1-.63-2.77,6.18,6.18,0,0,1,.6-2.71,4.9,4.9,0,0,1,1.7-1.99,4.443,4.443,0,0,1,2.54-.74,4.707,4.707,0,0,1,2.55.67A4.445,4.445,0,0,1,86.18-8a6.044,6.044,0,0,1,.58,2.7,3.693,3.693,0,0,1-.04.52H78.84a4.1,4.1,0,0,0,.55,1.96,3.258,3.258,0,0,0,1.23,1.2,3.234,3.234,0,0,0,1.56.4A3.16,3.16,0,0,0,85.1-3.08l1.44.72A4.971,4.971,0,0,1,84.8-.41,4.8,4.8,0,0,1,82.12.32Zm2.84-6.5a3.411,3.411,0,0,0-.35-1.28,2.721,2.721,0,0,0-.97-1.08,2.931,2.931,0,0,0-1.66-.44,2.754,2.754,0,0,0-1.97.77,3.766,3.766,0,0,0-1.07,2.03ZM93.58.32a4.388,4.388,0,0,1-2.44-.7,4.915,4.915,0,0,1-1.71-1.93A6.032,6.032,0,0,1,88.8-5.1a6.049,6.049,0,0,1,.63-2.78,4.9,4.9,0,0,1,1.71-1.94,4.388,4.388,0,0,1,2.44-.7,3.944,3.944,0,0,1,2.04.53A3.9,3.9,0,0,1,97-8.68h.04l-.08-1.42v-4.22h1.7V0H97.04V-1.5H97A3.974,3.974,0,0,1,95.62-.21,3.944,3.944,0,0,1,93.58.32Zm.18-1.54a2.933,2.933,0,0,0,1.61-.48,3.491,3.491,0,0,0,1.21-1.36,4.342,4.342,0,0,0,.46-2.04,4.342,4.342,0,0,0-.46-2.04A3.491,3.491,0,0,0,95.37-8.5a2.933,2.933,0,0,0-1.61-.48,2.95,2.95,0,0,0-1.6.48,3.447,3.447,0,0,0-1.22,1.37,4.357,4.357,0,0,0-.46,2.03,4.357,4.357,0,0,0,.46,2.03A3.447,3.447,0,0,0,92.16-1.7,2.95,2.95,0,0,0,93.76-1.22Zm13.4-13.1h5.14a4.3,4.3,0,0,1,2.03.5,3.917,3.917,0,0,1,1.51,1.38,3.61,3.61,0,0,1,.56,1.98,3.16,3.16,0,0,1-.53,1.82,3.456,3.456,0,0,1-1.43,1.2v.08a3.618,3.618,0,0,1,1.76,1.24,3.272,3.272,0,0,1,.68,2.06,3.819,3.819,0,0,1-.59,2.09,4.088,4.088,0,0,1-1.58,1.45,4.513,4.513,0,0,1-2.13.52h-5.42Zm5.14,6.18a2.42,2.42,0,0,0,1.27-.33,2.335,2.335,0,0,0,.85-.86,2.186,2.186,0,0,0,.3-1.09,2.208,2.208,0,0,0-.29-1.07,2.381,2.381,0,0,0-.82-.87,2.228,2.228,0,0,0-1.23-.34h-3.52v4.56Zm.38,6.52a2.365,2.365,0,0,0,1.29-.36,2.5,2.5,0,0,0,.88-.93,2.421,2.421,0,0,0,.31-1.17,2.362,2.362,0,0,0-.32-1.17,2.48,2.48,0,0,0-.9-.92,2.542,2.542,0,0,0-1.34-.35h-3.74v4.9Zm9.58.98-4.12-9.56h1.84l3.12,7.58h0l3-7.58h1.84L121.8,4.32h-1.76Zm13.86-7.12a1.237,1.237,0,0,1-.91-.37,1.237,1.237,0,0,1-.37-.91,1.237,1.237,0,0,1,.37-.91,1.237,1.237,0,0,1,.91-.37,1.237,1.237,0,0,1,.91.37,1.237,1.237,0,0,1,.37.91,1.237,1.237,0,0,1-.37.91A1.237,1.237,0,0,1,136.12-7.76Zm0,7.88a1.237,1.237,0,0,1-.91-.37,1.237,1.237,0,0,1-.37-.91,1.213,1.213,0,0,1,.37-.89,1.237,1.237,0,0,1,.91-.37,1.237,1.237,0,0,1,.91.37,1.213,1.213,0,0,1,.37.89,1.237,1.237,0,0,1-.37.91A1.237,1.237,0,0,1,136.12.12Zm9.62-14.44h4.32a7.788,7.788,0,0,1,3.84.91,6.263,6.263,0,0,1,2.52,2.53,7.669,7.669,0,0,1,.88,3.72,7.669,7.669,0,0,1-.88,3.72A6.263,6.263,0,0,1,153.9-.91a7.788,7.788,0,0,1-3.84.91h-4.32Zm4.32,12.7a5.509,5.509,0,0,0,4.03-1.46,5.451,5.451,0,0,0,1.49-4.08,5.451,5.451,0,0,0-1.49-4.08,5.509,5.509,0,0,0-4.03-1.46h-2.62V-1.62ZM164.1.32a4.831,4.831,0,0,1-2.58-.7,4.762,4.762,0,0,1-1.77-1.93,5.988,5.988,0,0,1-.63-2.77,6.18,6.18,0,0,1,.6-2.71,4.9,4.9,0,0,1,1.7-1.99,4.443,4.443,0,0,1,2.54-.74,4.707,4.707,0,0,1,2.55.67A4.445,4.445,0,0,1,168.16-8a6.044,6.044,0,0,1,.58,2.7,3.694,3.694,0,0,1-.04.52h-7.88a4.1,4.1,0,0,0,.55,1.96,3.258,3.258,0,0,0,1.23,1.2,3.234,3.234,0,0,0,1.56.4,3.16,3.16,0,0,0,2.92-1.86l1.44.72a4.971,4.971,0,0,1-1.74,1.95A4.8,4.8,0,0,1,164.1.32Zm2.84-6.5a3.411,3.411,0,0,0-.35-1.28,2.721,2.721,0,0,0-.97-1.08,2.931,2.931,0,0,0-1.66-.44,2.754,2.754,0,0,0-1.97.77,3.766,3.766,0,0,0-1.07,2.03Zm2.96-4.02h1.82L174.8-2h0l3.12-8.2h1.78L175.64,0h-1.72ZM185.74.32a4.831,4.831,0,0,1-2.58-.7,4.762,4.762,0,0,1-1.77-1.93,5.988,5.988,0,0,1-.63-2.77,6.18,6.18,0,0,1,.6-2.71,4.9,4.9,0,0,1,1.7-1.99,4.443,4.443,0,0,1,2.54-.74,4.707,4.707,0,0,1,2.55.67A4.445,4.445,0,0,1,189.8-8a6.044,6.044,0,0,1,.58,2.7,3.694,3.694,0,0,1-.04.52h-7.88a4.1,4.1,0,0,0,.55,1.96,3.258,3.258,0,0,0,1.23,1.2,3.234,3.234,0,0,0,1.56.4,3.16,3.16,0,0,0,2.92-1.86l1.44.72a4.971,4.971,0,0,1-1.74,1.95A4.8,4.8,0,0,1,185.74.32Zm2.84-6.5a3.411,3.411,0,0,0-.35-1.28,2.721,2.721,0,0,0-.97-1.08,2.931,2.931,0,0,0-1.66-.44,2.754,2.754,0,0,0-1.97.77,3.766,3.766,0,0,0-1.07,2.03Zm4.28-8.14,1.7-.6V0h-1.7ZM202.06.32a4.953,4.953,0,0,1-2.65-.72,4.959,4.959,0,0,1-1.82-1.96,5.811,5.811,0,0,1-.65-2.74,5.811,5.811,0,0,1,.65-2.74,4.959,4.959,0,0,1,1.82-1.96,4.953,4.953,0,0,1,2.65-.72,4.953,4.953,0,0,1,2.65.72,4.959,4.959,0,0,1,1.82,1.96,5.811,5.811,0,0,1,.65,2.74,5.811,5.811,0,0,1-.65,2.74A4.959,4.959,0,0,1,204.71-.4,4.953,4.953,0,0,1,202.06.32Zm0-1.54a3.25,3.25,0,0,0,1.69-.47,3.451,3.451,0,0,0,1.27-1.35,4.236,4.236,0,0,0,.48-2.06,4.236,4.236,0,0,0-.48-2.06,3.451,3.451,0,0,0-1.27-1.35,3.25,3.25,0,0,0-1.69-.47,3.3,3.3,0,0,0-1.7.47,3.427,3.427,0,0,0-1.28,1.35,4.236,4.236,0,0,0-.48,2.06,4.236,4.236,0,0,0,.48,2.06,3.427,3.427,0,0,0,1.28,1.35A3.3,3.3,0,0,0,202.06-1.22Zm7.42-8.98h1.62v1.52h.04a3.71,3.71,0,0,1,1.37-1.31,4,4,0,0,1,2.05-.53,4.388,4.388,0,0,1,2.44.7,4.9,4.9,0,0,1,1.71,1.94,6.049,6.049,0,0,1,.63,2.78,6.032,6.032,0,0,1-.63,2.79A4.914,4.914,0,0,1,217-.38a4.388,4.388,0,0,1-2.44.7,4,4,0,0,1-2.05-.53,3.772,3.772,0,0,1-1.37-1.29h-.04l.08,1.4V4.32h-1.7Zm4.9,8.98a2.95,2.95,0,0,0,1.6-.48,3.391,3.391,0,0,0,1.21-1.36,4.421,4.421,0,0,0,.45-2.04,4.421,4.421,0,0,0-.45-2.04,3.391,3.391,0,0,0-1.21-1.36,2.95,2.95,0,0,0-1.6-.48,2.933,2.933,0,0,0-1.61.48,3.491,3.491,0,0,0-1.21,1.36,4.342,4.342,0,0,0-.46,2.04,4.342,4.342,0,0,0,.46,2.04,3.491,3.491,0,0,0,1.21,1.36A2.933,2.933,0,0,0,214.38-1.22ZM226.26.32a4.831,4.831,0,0,1-2.58-.7,4.762,4.762,0,0,1-1.77-1.93,5.988,5.988,0,0,1-.63-2.77,6.18,6.18,0,0,1,.6-2.71,4.9,4.9,0,0,1,1.7-1.99,4.443,4.443,0,0,1,2.54-.74,4.707,4.707,0,0,1,2.55.67A4.445,4.445,0,0,1,230.32-8a6.044,6.044,0,0,1,.58,2.7,3.694,3.694,0,0,1-.04.52h-7.88a4.1,4.1,0,0,0,.55,1.96,3.258,3.258,0,0,0,1.23,1.2,3.234,3.234,0,0,0,1.56.4,3.16,3.16,0,0,0,2.92-1.86l1.44.72a4.971,4.971,0,0,1-1.74,1.95A4.8,4.8,0,0,1,226.26.32Zm2.84-6.5a3.411,3.411,0,0,0-.35-1.28,2.721,2.721,0,0,0-.97-1.08,2.931,2.931,0,0,0-1.66-.44,2.754,2.754,0,0,0-1.97.77,3.766,3.766,0,0,0-1.07,2.03Zm4.28-4.02H235v1.64h.04a2.652,2.652,0,0,1,1.12-1.39,3.2,3.2,0,0,1,1.78-.55,3.169,3.169,0,0,1,1.18.2v1.86a2.979,2.979,0,0,0-1.42-.34,2.222,2.222,0,0,0-1.3.42,3.01,3.01,0,0,0-.96,1.13,3.335,3.335,0,0,0-.36,1.53V0h-1.7Zm13.36-4.12h2.08L256-2.92h.08L256-5.68v-8.64h1.7V0h-1.76l-7.5-11.94h-.08l.08,2.76V0h-1.7ZM263.94.32a4.3,4.3,0,0,1-1.97-.44,3.172,3.172,0,0,1-1.33-1.21,3.346,3.346,0,0,1-.46-1.75,3.005,3.005,0,0,1,1.19-2.53,4.812,4.812,0,0,1,3.01-.91,6.747,6.747,0,0,1,1.68.2,4.226,4.226,0,0,1,1.16.44v-.6a2.324,2.324,0,0,0-.78-1.83A2.849,2.849,0,0,0,264.48-9a3.221,3.221,0,0,0-1.51.37,2.856,2.856,0,0,0-1.13,1.05l-1.28-.98A3.96,3.96,0,0,1,262.18-10a5.07,5.07,0,0,1,2.3-.52,4.451,4.451,0,0,1,3.19,1.09,3.9,3.9,0,0,1,1.15,2.97V0h-1.6V-1.46h-.06A3.517,3.517,0,0,1,265.88-.2,3.675,3.675,0,0,1,263.94.32Zm.16-1.5a2.9,2.9,0,0,0,1.54-.44,3.307,3.307,0,0,0,1.15-1.18,3.167,3.167,0,0,0,.43-1.62,4.259,4.259,0,0,0-1.15-.52,4.976,4.976,0,0,0-1.43-.2,3.12,3.12,0,0,0-2.05.58,1.869,1.869,0,0,0-.69,1.5,1.69,1.69,0,0,0,.62,1.36A2.375,2.375,0,0,0,264.1-1.18Zm7.58-9.02h1.62v1.5h.04a3.571,3.571,0,0,1,1.3-1.3,3.462,3.462,0,0,1,1.82-.52,3.411,3.411,0,0,1,1.92.54,2.952,2.952,0,0,1,1.16,1.4,3.99,3.99,0,0,1,1.37-1.4,3.77,3.77,0,0,1,2.03-.54,3.165,3.165,0,0,1,2.61,1.07,4.481,4.481,0,0,1,.87,2.91V0h-1.68V-6.28a3.055,3.055,0,0,0-.57-2.06,2.094,2.094,0,0,0-1.65-.64,2.212,2.212,0,0,0-1.34.44,2.963,2.963,0,0,0-.94,1.18,3.786,3.786,0,0,0-.34,1.6V0h-1.7V-6.26a3.131,3.131,0,0,0-.56-2.08A2.062,2.062,0,0,0,276-8.98a2.179,2.179,0,0,0-1.34.45,3.029,3.029,0,0,0-.94,1.2,3.854,3.854,0,0,0-.34,1.61V0h-1.7ZM293.82.32a4.831,4.831,0,0,1-2.58-.7,4.763,4.763,0,0,1-1.77-1.93,5.988,5.988,0,0,1-.63-2.77,6.181,6.181,0,0,1,.6-2.71,4.9,4.9,0,0,1,1.7-1.99,4.443,4.443,0,0,1,2.54-.74,4.707,4.707,0,0,1,2.55.67A4.445,4.445,0,0,1,297.88-8a6.044,6.044,0,0,1,.58,2.7,3.692,3.692,0,0,1-.04.52h-7.88a4.1,4.1,0,0,0,.55,1.96,3.258,3.258,0,0,0,1.23,1.2,3.234,3.234,0,0,0,1.56.4,3.16,3.16,0,0,0,2.92-1.86l1.44.72A4.971,4.971,0,0,1,296.5-.41,4.8,4.8,0,0,1,293.82.32Zm2.84-6.5a3.411,3.411,0,0,0-.35-1.28,2.721,2.721,0,0,0-.97-1.08,2.931,2.931,0,0,0-1.66-.44,2.754,2.754,0,0,0-1.97.77,3.766,3.766,0,0,0-1.07,2.03Z" transform="translate(30 83)" fill="#fff"/>
  </g>
</svg>
